<svg width="13" height="12" viewBox="0 0 13 12" fill="none" xmlns="http://www.w3.org/2000/svg">
<path d="M3.125 4.87501H9.875C9.94915 4.875 10.0216 4.853 10.0833 4.81179C10.1449 4.77058 10.193 4.71202 10.2214 4.64351C10.2498 4.575 10.2572 4.49961 10.2427 4.42688C10.2283 4.35414 10.1926 4.28733 10.1401 4.23489L6.76512 0.859888C6.73032 0.825051 6.68899 0.797416 6.64349 0.77856C6.598 0.759705 6.54924 0.75 6.5 0.75C6.45075 0.75 6.40199 0.759705 6.3565 0.77856C6.31101 0.797416 6.26968 0.825051 6.23487 0.859888L2.85987 4.23489C2.80744 4.28733 2.77174 4.35414 2.75728 4.42688C2.74281 4.49961 2.75024 4.575 2.77862 4.64351C2.80699 4.71202 2.85505 4.77058 2.9167 4.81179C2.97835 4.853 3.05084 4.875 3.125 4.87501Z" fill="#0F151F"/>
<path d="M9.875 7.125H3.125C3.05084 7.12502 2.97835 7.14702 2.9167 7.18822C2.85505 7.22943 2.80699 7.28799 2.77862 7.3565C2.75024 7.42502 2.74281 7.5004 2.75728 7.57314C2.77174 7.64587 2.80744 7.71268 2.85987 7.76513L6.23487 11.1401C6.26968 11.175 6.31101 11.2026 6.3565 11.2214C6.40199 11.2403 6.45075 11.25 6.5 11.25C6.54924 11.25 6.598 11.2403 6.64349 11.2214C6.68898 11.2026 6.73031 11.175 6.76512 11.1401L10.1401 7.76513C10.1926 7.71268 10.2283 7.64587 10.2427 7.57314C10.2572 7.5004 10.2498 7.42502 10.2214 7.3565C10.193 7.28799 10.1449 7.22943 10.0833 7.18822C10.0216 7.14702 9.94915 7.12502 9.875 7.125Z" fill="#0F151F"/>
</svg>
